. 
  
http://www.torrentday.com/        :     The Hottest Private Tracker On The Net!!!
 
http://www.torrentday.com          :     Once & For all ;)


               www . TorrentDay . Com 

(((((((((((((= Enjoy No RAR releases =))))))))))))))))))))


...................................NFO:....................................

.[img]http://img829.imageshack.us/img829/9167/seasonofthewitchnewpost.jpg[/img]

Season of the Witch TS XViD V2 Hive-CM8



[b]Thx Hive

CM8 Doing It Right The First Time :D


Source: 
newest french serenity video version(1.37gb) + imagines line audio.
thx

Encode:
corrected aspect,added brightness,sharpness,chroma,rgb and denoise, cleaned audio

Video: 640x320 @bitrate 1500 2pass
Audio: AC3 2.0 Stereo
Sample: yes included[/b]
 
http://www.imdb.com/title/tt0479997/


General
Complete name                    : Season.of.the.Witch.TS.XViD.V2.Hive-CM8.avi
Format                           : AVI
Format/Info                      : Audio Video Interleave
File size                        : 1.07 GiB
Duration                         : 1h 27mn
Overall bit rate                 : 1 766 Kbps
Writing application              : Nandub v1.0rc2
Writing library                  : Nandub build 1853/release

Video
ID                               : 0
Format                           : MPEG-4 Visual
Format profile                   : Advanced Simple@L5
Format settings, BVOP            : Yes
Format settings, QPel            : Yes
Format settings, GMC             : No warppoints
Format settings, Matrix          : Default (H.263)
Muxing mode                      : Packed bitstream
Codec ID                         : XVID
Codec ID/Hint                    : XviD
Duration                         : 1h 27mn
Bit rate                         : 1 500 Kbps
Width                            : 640 pixels
Height                           : 320 pixels
Display aspect ratio             : 2.000
Frame rate                       : 25.000 fps
Color space                      : YUV
Chroma subsampling               : 4:2:0
Bit depth                        : 8 bits
Scan type                        : Progressive
Bits/(Pixel*Frame)               : 0.293
Stream size                      : 933 MiB (85%)
Writing library                  : XviD 1.2.1 (UTC 2008-12-04)

Audio
ID                               : 1
Format                           : AC-3
Format/Info                      : Audio Coding 3
Mode extension                   : CM (complete main)
Codec ID                         : 2000
Duration                         : 1h 27mn
Bit rate mode                    : Constant
Bit rate                         : 256 Kbps
Channel(s)                       : 2 channels
Channel positions                : Front: L R
Sampling rate                    : 48.0 KHz
Bit depth                        : 16 bits
Stream size                      : 159 MiB (14%)
Alignment                        : Split accross interleaves
Interleave, duration             : 40 ms (1.00 video frame)
Interleave, preload duration     : 500 ms





Nicolas Cage ... Behmen
Ron Perlman ... Felson
Stephen Campbell Moore ... Debelzaq
Stephen Graham ... Hagamar  
Ulrich Thomsen ... Eckhart  
Claire Foy ... The Girl
Robert Sheehan ... Kay
Christopher Lee ... Cardinal D'Ambroise  
Rebekah Kennedy ... Peasant Turk Girl   




14th-century knights transport a suspected witch to a monastery, where monks 
deduce her powers could be the source of the Black Plague.  



[img]http://img337.imageshack.us/img337/5190/91218552.png[/img]
[img]http://img148.imageshack.us/img148/9346/sese.png[/img]
[img]http://img441.imageshack.us/img441/7903/sesese.png[/img]
[img]http://img692.imageshack.us/img692/52/sesesessesseseee.png[/img]
[img]http://img155.imageshack.us/img155/121/sesesessseee.png[/img]
[img]http://img338.imageshack.us/img338/8800/sesesessseseee.png[/img]
[img]http://img26.imageshack.us/img26/9641/sesessee.png[/img]
[img]http://img64.imageshack.us/img64/2053/sesessseee.png[/img]





Greetz

iNK,LUSi,,MAGNET,CLASSiFiED,THC,LEGi0N,IMAGiNE,ViSiON,WBZ,FLAWL3SS,NOVA
Rapeseed,D2U,SAFC,goldadvance,MEMORY100,KaN1vE,Unevano,Pinnz,Wayne,Mr Hive
and all P2P groups 
Great Work Guys :D